<svg width="22" height="22" viewBox="0 0 24 24" fill="none" xmlns="http://www.w3.org/2000/svg">
<mask id="mask0" mask-type="alpha" maskUnits="userSpaceOnUse" x="3" y="3" width="18" height="18">
<path fill-rule="evenodd" clip-rule="evenodd" d="M5 12C5 10.1173 5.74532 8.35518 7.05025 7.05025C7.34303 6.75748 7.66044 6.49162 7.99845 6.25566V8.00155C7.99845 8.55383 8.44617 9.00155 8.99845 9.00155C9.55073 9.00155 9.99845 8.55383 9.99845 8.00155V5.00155C9.99845 5.14898 10.0031 4.46305 9.99622 4.32815C9.9767 3.94712 9.89587 3.65633 9.61977 3.38023C9.34367 3.10413 9.05288 3.0233 8.67185 3.00378C8.53695 2.99687 7.85102 3.00155 7.99845 3.00155H4.99845C4.44617 3.00155 3.99845 3.44926 3.99845 4.00155C3.99845 4.55383 4.44617 5.00155 4.99845 5.00155H6.34079C6.09532 5.20027 5.86004 5.41203 5.63604 5.63604C3.95975 7.31232 3 9.58144 3 12C3 14.8017 4.28975 17.3925 6.45264 19.0875C6.88734 19.4282 7.5159 19.352 7.85657 18.9173C8.19723 18.4826 8.121 17.854 7.68629 17.5133C6.00212 16.1935 5 14.1804 5 12ZM19 12C19 13.8827 18.2547 15.6448 16.9497 16.9497C16.657 17.2425 16.3396 17.5084 16.0015 17.7443V15.9985C16.0015 15.4462 15.5538 14.9985 15.0015 14.9985C14.4493 14.9985 14.0015 15.4462 14.0015 15.9985V18.9985C14.0015 18.851 13.9969 19.537 14.0038 19.6719C14.0233 20.0529 14.1041 20.3437 14.3802 20.6198C14.6563 20.8959 14.9471 20.9767 15.3281 20.9962C15.463 21.0031 16.149 20.9984 16.0015 20.9984H19.0015C19.5538 20.9984 20.0015 20.5507 20.0015 19.9985C20.0015 19.4462 19.5538 18.9985 19.0015 18.9985H17.6592C17.9047 18.7997 18.14 18.588 18.364 18.364C20.0402 16.6877 21 14.4186 21 12C21 9.19835 19.7103 6.60747 17.5474 4.91247C17.1127 4.57181 16.4841 4.64804 16.1434 5.08274C15.8028 5.51744 15.879 6.146 16.3137 6.48667C17.9979 7.80651 19 9.81959 19 12Z" fill="white"/>
</mask>
<g mask="url(#mask0)">
<rect width="22" height="22" fill="#3D4D65"/>
</g>
</svg>
