<svg width="24" height="24" viewBox="0 0 24 24" fill="none" xmlns="http://www.w3.org/2000/svg">
<mask id="mask0" mask-type="alpha" maskUnits="userSpaceOnUse" x="3" y="2" width="18" height="20">
<path fill-rule="evenodd" clip-rule="evenodd" d="M11.5 2H12.5C13.1531 2 13.7087 2.4174 13.9146 3H18C19.6569 3 21 4.34315 21 6C21 7.38347 20.0635 8.54821 18.7899 8.89492C18.9255 9.23691 19 9.60975 19 10V18C19 20.2091 17.2091 22 15 22H9C6.79086 22 5 20.2091 5 18V10C5 9.60975 5.07451 9.23691 5.21009 8.89492C3.93647 8.54821 3 7.38347 3 6C3 4.34315 4.34315 3 6 3H10.0854C10.2913 2.4174 10.8469 2 11.5 2ZM18 5H6C5.44772 5 5 5.44772 5 6C5 6.55228 5.44772 7 6 7H16H18C18.5523 7 19 6.55228 19 6C19 5.44772 18.5523 5 18 5ZM7 10C7 9.44772 7.44772 9 8 9H16C16.5523 9 17 9.44772 17 10V18C17 19.1046 16.1046 20 15 20H9C7.89543 20 7 19.1046 7 18V10Z" fill="white"/>
</mask>
<g mask="url(#mask0)">
<rect width="24" height="24" fill="#FF3030"/>
</g>
</svg>
