<svg width="24" height="24" viewBox="0 0 24 24" fill="none" xmlns="http://www.w3.org/2000/svg">
<mask id="mask0" mask-type="alpha" maskUnits="userSpaceOnUse" x="2" y="2" width="20" height="20">
<path fill-rule="evenodd" clip-rule="evenodd" d="M12 22C6.47715 22 2 17.5228 2 12C2 6.47715 6.47715 2 12 2C17.5228 2 22 6.47715 22 12C22 17.5228 17.5228 22 12 22ZM10.3284 13.6569L8.20711 11.5355C7.81658 11.145 7.18342 11.145 6.79289 11.5355C6.40237 11.9261 6.40237 12.5592 6.79289 12.9497L9.62132 15.7782C10.0118 16.1687 10.645 16.1687 11.0355 15.7782L17.1066 9.70711C17.4971 9.31658 17.4971 8.68342 17.1066 8.29289C16.7161 7.90237 16.0829 7.90237 15.6924 8.29289L10.3284 13.6569Z" fill="white"/>
</mask>
<g mask="url(#mask0)">
<rect width="24" height="24" fill="#6EB200"/>
</g>
</svg>
