<svg width="24" height="24" viewBox="0 0 24 24" fill="none" xmlns="http://www.w3.org/2000/svg">
<mask id="mask0" mask-type="alpha" maskUnits="userSpaceOnUse" x="2" y="2" width="20" height="20">
<path fill-rule="evenodd" clip-rule="evenodd" d="M4.92893 19.0711C1.02369 15.1658 1.02369 8.83418 4.92893 4.92893C8.83418 1.02369 15.1658 1.02369 19.0711 4.92893C22.9763 8.83418 22.9763 15.1658 19.0711 19.0711C15.1658 22.9763 8.83418 22.9763 4.92893 19.0711ZM13 13H16.5858C17.1381 13 17.5858 12.5523 17.5858 12C17.5858 11.4477 17.1381 11 16.5858 11H13V7.41421C13 6.86193 12.5523 6.41421 12 6.41421C11.4477 6.41421 11 6.86193 11 7.41421V11H7.41421C6.86193 11 6.41421 11.4477 6.41421 12C6.41421 12.5523 6.86193 13 7.41421 13H11V16.5858C11 17.1381 11.4477 17.5858 12 17.5858C12.5523 17.5858 13 17.1381 13 16.5858V13Z" fill="white"/>
</mask>
<g mask="url(#mask0)">
<rect width="24" height="24" fill="#20BBEF"/>
</g>
</svg>
