<?xml version="1.0" encoding="iso-8859-1"?>
<?xml-stylesheet type="text/css" href="../css/app.css" ?>
<svg class="logo-svg" width="25" height="24" viewBox="0 0 25 24" fill="none" xmlns="http://www.w3.org/2000/svg">
<rect class="logo-rect" width="25" height="24" rx="9" fill="#3DBDB6"/>
<g clip-path="url(#clip0)">
<path class="logo-path" fill-rule="evenodd" clip-rule="evenodd" d="M9.30233 7.24646C9.99589 7.24646 10.5581 7.81258 10.5581 8.51092C10.5581 9.20926 9.99589 9.77539 9.30233 9.77539C8.60874 9.77539 8.04651 9.20926 8.04651 8.51092C8.04651 7.81258 8.60874 7.24646 9.30233 7.24646ZM16.4186 7.24646C17.1122 7.24646 17.6744 7.81258 17.6744 8.51092C17.6744 9.20926 17.1122 9.77539 16.4186 9.77539C15.725 9.77539 15.1628 9.20926 15.1628 8.51092C15.1628 7.81258 15.725 7.24646 16.4186 7.24646ZM12.8605 17.5729C15.5653 17.5729 17.8662 15.8119 18.7209 13.358H7C7.85473 15.8119 10.1557 17.5729 12.8605 17.5729Z" fill="white"/>
</g>
<defs>
<clipPath id="clip0">
<rect x="7" y="7.24646" width="12" height="11" fill="white"/>
</clipPath>
</defs>
</svg>
